<?xml version="1.0" standalone="no"?>
<!DOCTYPE svg PUBLIC "-//W3C//DTD SVG 20010904//EN"
 "http://www.w3.org/TR/2001/REC-SVG-20010904/DTD/svg10.dtd">
<svg version="1.0" xmlns="http://www.w3.org/2000/svg"
 width="513.000000pt" height="513.000000pt" viewBox="0 0 513.000000 513.000000"
 preserveAspectRatio="xMidYMid meet">
<metadata>
Created by potrace 1.11, written by Peter Selinger 2001-2013
</metadata>
<g transform="translate(0.000000,513.000000) scale(0.100000,-0.100000)"
fill="#000000" stroke="none">
<path d="M2335 5059 c-472 -48 -921 -225 -1304 -512 -132 -99 -350 -319 -453
-457 -206 -277 -353 -580 -433 -895 -112 -439 -112 -821 0 -1260 110 -431 338
-831 654 -1145 207 -205 386 -332 656 -465 186 -92 306 -136 499 -185 235 -59
357 -74 606 -74 249 0 371 15 606 74 193 49 313 93 499 185 270 133 449 260
656 465 419 417 672 964 729 1575 24 266 0 535 -75 830 -155 608 -546 1148
-1071 1480 -113 72 -360 193 -488 240 -131 48 -372 109 -516 130 -136 20 -438
28 -565 14z m535 -55 c143 -20 385 -81 516 -129 128 -47 355 -158 468 -230
314 -198 609 -498 801 -815 254 -417 393 -963 357 -1404 -51 -629 -295 -1162
-731 -1596 -214 -213 -393 -341 -656 -470 -177 -87 -299 -132 -489 -180 -224
-57 -359 -74 -576 -74 -217 0 -352 17 -576 74 -190 48 -312 93 -489 180 -263
129 -442 257 -656 470 -435 433 -678 963 -731 1592 -37 441 102 990 357 1408
193 317 490 619 801 815 321 202 709 334 1099 374 121 13 364 6 505 -15z"/>
<path d="M994 3519 c-140 -23 -265 -91 -379 -204 -89 -88 -141 -178 -172 -295
-25 -94 -23 -264 6 -350 11 -36 21 -70 21 -75 0 -6 -50 -39 -110 -74 -126 -71
-149 -96 -131 -140 7 -16 24 -34 38 -40 23 -11 37 -5 149 59 68 38 128 70 133
70 4 0 11 -40 15 -90 21 -285 161 -514 400 -659 135 -81 336 -123 499 -102
381 49 659 327 708 709 38 298 -113 615 -368 772 -40 25 -72 49 -70 54 2 5 54
38 117 75 89 51 116 72 118 90 6 39 -6 67 -33 79 -29 14 -38 10 -188 -77 -49
-28 -92 -51 -97 -51 -5 0 -32 25 -61 55 -95 101 -215 163 -369 191 -84 15
-150 16 -226 3z m231 -44 c38 -8 103 -31 143 -50 83 -39 84 -48 12 -80 l-40
-18 -21 27 c-38 49 -135 84 -142 51 -1 -5 19 -21 43 -35 59 -33 95 -58 89 -64
-12 -13 -822 -476 -831 -476 -19 0 -2 150 27 235 51 154 158 276 307 351 138
69 272 89 413 59z m706 -126 c9 -18 8 -25 -7 -39 -11 -9 -380 -225 -822 -480
-678 -391 -805 -460 -818 -449 -41 34 -31 40 801 521 446 257 815 468 822 468
7 0 17 -10 24 -21z m-446 -495 c286 -74 423 -409 272 -667 -31 -52 -124 -140
-176 -166 -138 -71 -310 -66 -443 12 -54 31 -139 120 -166 173 -88 174 -63
379 65 515 119 127 284 176 448 133z"/>
<path d="M1115 3321 c-5 -10 53 -71 68 -71 20 0 18 33 -3 56 -24 24 -54 32
-65 15z"/>
<path d="M744 3096 c-9 -25 0 -61 16 -61 10 0 16 12 18 38 2 28 0 37 -13 37
-8 0 -18 -6 -21 -14z"/>
<path d="M570 3076 c-5 -13 -12 -51 -16 -84 -5 -49 -4 -60 10 -65 21 -8 32 19
41 106 6 58 5 67 -9 67 -9 0 -21 -11 -26 -24z"/>
<path d="M661 3081 c-17 -32 -14 -111 5 -118 23 -9 30 8 29 73 0 61 -15 81
-34 45z"/>
<path d="M4212 3357 c-5 -7 -19 -30 -30 -53 -36 -72 -20 -68 -386 -74 l-331
-5 2 -45 c3 -104 93 -225 206 -276 61 -28 66 -29 289 -34 l227 -5 31 -30 c62
-59 62 -141 -1 -201 l-30 -29 -362 -5 -362 -5 0 -360 c0 -351 1 -361 22 -408
49 -105 166 -194 281 -212 l42 -7 0 281 c0 191 3 282 11 287 6 3 119 -101 263
-244 225 -225 259 -254 321 -283 59 -28 80 -33 144 -32 88 0 167 26 221 72
l35 30 -263 264 c-275 276 -275 276 -211 292 20 5 36 -2 78 -35 58 -46 67 -46
124 3 l38 33 -25 65 -25 66 20 32 20 33 73 -7 74 -7 21 56 c11 31 21 61 21 65
0 5 -25 27 -55 50 -48 36 -55 46 -55 76 0 32 4 37 59 65 33 16 62 33 64 38 5
7 -18 120 -26 128 -2 2 -33 7 -68 10 -64 7 -99 25 -99 52 0 8 14 39 31 69 28
49 30 57 18 80 -7 13 -28 38 -47 54 l-34 30 -54 -31 c-57 -32 -95 -38 -111
-17 -6 6 -13 43 -16 80 -2 37 -7 70 -9 72 -2 2 -32 11 -66 19 -46 10 -63 11
-70 3z"/>
<path d="M2246 3222 c-11 -17 13 -113 41 -163 34 -64 100 -124 171 -157 55
-25 66 -27 282 -32 195 -4 229 -7 252 -23 31 -21 58 -74 58 -112 0 -38 -27
-91 -58 -112 -24 -16 -61 -18 -387 -23 l-360 -5 0 -355 0 -355 27 -57 c53
-113 172 -203 278 -210 l45 -3 3 311 2 312 208 4 c178 4 215 8 264 26 121 44
223 134 279 244 137 270 11 582 -277 690 -56 21 -76 22 -441 26 -236 2 -383 0
-387 -6z"/>
</g>
</svg>
